<svg version="1.1" id="Layer_1" xmlns="http://www.w3.org/2000/svg" xmlns:xlink="http://www.w3.org/1999/xlink" x="0px" y="0px"
	 width="100%" viewBox="0 0 1024 1024" enable-background="new 0 0 1024 1024" xml:space="preserve">
<path fill="#000000" opacity="1.000000" stroke="none" 
	d="
M142.020065,499.998352 
	C141.345047,502.466644 140.582489,504.529938 140.319733,506.654999 
	C139.511765,513.189148 141.590424,516.268005 147.783173,518.315186 
	C149.429031,518.859253 151.565979,518.553772 152.914505,522.047852 
	C138.342499,522.536072 124.301445,522.421265 110.334572,522.096008 
	C110.113350,519.351929 111.272987,518.990051 112.435585,518.802673 
	C122.717209,517.145447 128.739105,510.686890 132.615585,501.462860 
	C144.356476,473.525452 156.265152,445.658630 168.051895,417.740417 
	C183.204041,381.850800 198.322968,345.947083 213.385803,310.019928 
	C214.756256,306.751190 216.694290,304.923187 220.395309,304.717712 
	C224.327438,304.499420 226.021866,306.708221 227.433640,309.823547 
	C245.234543,349.104034 263.070038,388.368866 280.912048,427.630707 
	C292.345703,452.790771 303.826355,477.929504 315.239716,503.098755 
	C318.843872,511.046783 324.543091,516.365051 333.267639,518.122498 
	C334.406647,518.351929 335.553528,518.611023 336.640564,519.009705 
	C337.726440,519.407959 338.928772,519.911194 338.820465,521.371338 
	C338.708374,522.882812 337.471985,523.106812 336.277557,523.192322 
	C335.115997,523.275391 333.947235,523.280823 332.781616,523.280396 
	C317.286224,523.274719 301.790649,523.293396 286.295624,523.212402 
	C284.312073,523.202026 281.882324,524.030029 280.497101,521.250183 
	C282.133240,518.843384 284.989075,519.526001 287.175385,518.726624 
	C292.610260,516.739502 294.526123,513.691467 293.282867,508.024628 
	C291.334106,499.141632 286.831757,491.251953 283.212921,483.054565 
	C261.156525,433.092499 238.870361,383.231873 216.657471,333.338898 
	C216.056152,331.988281 215.583572,330.528687 214.021545,329.834167 
	C212.164612,330.173065 211.997040,331.910248 211.462097,333.185852 
	C191.953461,379.704254 172.470291,426.233368 153.029434,472.780151 
	C149.309494,481.686737 145.779007,490.672394 142.020065,499.998352 
z"/>
<path fill="#000000" opacity="1.000000" stroke="none" 
	d="
M765.300781,433.129272 
	C764.951599,442.772858 765.999390,452.003662 764.706970,461.092285 
	C761.461670,461.266296 761.831421,459.013916 761.281311,457.661835 
	C758.713074,451.350616 754.109680,448.021515 747.331482,447.170990 
	C737.862976,445.982880 728.412842,446.100983 718.925476,446.670197 
	C715.417175,446.880707 714.006165,448.333069 714.034668,451.958099 
	C714.195801,472.447845 714.182617,492.938934 714.229553,513.429565 
	C714.234375,515.525269 714.329346,517.797119 717.189941,517.615784 
	C731.977905,516.678650 746.891785,518.270386 761.574585,516.081421 
	C773.864807,514.249023 781.475952,506.074799 786.171509,494.967926 
	C787.705261,491.339813 787.636169,491.310577 789.796143,489.184357 
	C791.988770,490.483002 791.449158,492.732941 791.196350,494.475922 
	C790.041992,502.433960 790.274719,510.428009 790.328796,518.410950 
	C790.353577,522.070007 788.925110,523.357788 785.288330,523.348267 
	C752.634155,523.262390 719.979553,523.306335 687.325134,523.278870 
	C685.911377,523.277649 684.268616,523.649658 683.300049,522.000610 
	C683.351929,519.511963 685.454590,519.915955 686.893127,519.440857 
	C692.759644,517.503357 694.684509,515.092834 694.691223,508.823822 
	C694.735474,467.672607 694.734924,426.521301 694.696960,385.370087 
	C694.690552,378.438873 692.580017,375.952881 685.747009,374.256805 
	C684.774109,374.015320 683.744141,373.948853 683.398376,372.579651 
	C684.048706,370.176941 686.178040,370.759186 687.836426,370.756653 
	C717.991699,370.710785 748.147156,370.754425 778.302246,370.668579 
	C781.928162,370.658264 783.600281,371.966583 783.304199,375.630524 
	C782.750732,382.481567 784.338196,389.236176 784.250977,396.062286 
	C784.228882,397.789124 784.848450,399.727234 783.221558,401.262878 
	C780.496155,401.005402 780.526733,398.600403 779.926208,396.896820 
	C775.549744,384.480347 766.306335,377.997955 753.324890,377.180420 
	C742.343994,376.488922 731.379944,376.397491 720.397644,376.280365 
	C716.129333,376.234863 714.048828,377.398468 714.097290,382.219391 
	C714.273010,399.709381 714.172119,417.203949 713.974976,434.694550 
	C713.925903,439.049347 715.069092,441.123535 719.898804,440.794464 
	C728.190002,440.229553 736.512939,440.983368 744.838684,440.088623 
	C753.138916,439.196594 758.886597,435.450623 761.844055,427.582092 
	C762.195374,426.647247 762.648987,425.736542 764.063171,425.388611 
	C766.311401,427.431183 764.893005,430.235779 765.300781,433.129272 
z"/>
<path fill="#000000" opacity="1.000000" stroke="none" 
	d="
M824.246216,426.575562 
	C810.567017,401.094238 824.460999,373.864258 852.693787,369.603058 
	C865.817139,367.622314 878.099182,369.693390 890.084595,375.039948 
	C895.291443,377.362671 895.629395,380.002838 905.639038,372.291901 
	C905.639038,384.725525 905.639038,396.701874 905.639038,408.848602 
	C902.329041,408.348083 902.457092,405.926270 901.769897,404.232117 
	C896.143494,390.361206 887.004639,379.963776 872.110413,376.244537 
	C861.796936,373.669098 851.483154,374.492584 842.644653,381.317047 
	C830.385620,390.782715 831.714233,411.882263 845.038147,421.788208 
	C851.934753,426.915710 859.860962,430.015839 867.757812,433.139954 
	C880.459839,438.165070 893.304138,442.904022 903.981323,451.834869 
	C919.790344,465.058014 923.240906,488.232880 911.830627,504.490784 
	C902.942200,517.155334 890.109436,522.699707 875.286011,524.269226 
	C861.596863,525.718628 848.499207,523.066162 835.831482,517.818420 
	C828.996765,514.987122 828.146362,515.333984 823.144409,521.105408 
	C822.391357,521.974304 821.808289,523.156799 820.391907,522.870544 
	C818.909424,522.570923 818.799988,521.269653 818.798340,520.119812 
	C818.780151,507.291626 818.795044,494.463348 818.832642,481.635223 
	C818.835632,480.600922 819.231018,479.678070 820.571716,479.321167 
	C822.966919,480.187408 822.809387,482.682343 823.467224,484.583862 
	C829.880066,503.120636 842.147705,515.025330 861.885986,518.189148 
	C871.161255,519.675842 880.080994,518.392578 888.324036,513.404236 
	C906.329346,502.508148 906.328979,475.909454 889.022705,464.716461 
	C880.526184,459.221252 871.292480,455.571655 861.936768,452.074371 
	C850.002869,447.613434 838.480469,442.454468 829.420166,433.115082 
	C827.579346,431.217529 826.093384,428.975616 824.246216,426.575562 
z"/>
<path fill="#000000" opacity="1.000000" stroke="none" 
	d="
M361.082703,523.311401 
	C357.888123,523.041138 354.983826,524.032837 352.474518,522.351990 
	C352.448273,519.582458 354.541809,519.886169 355.974060,519.446655 
	C360.477539,518.064636 362.877502,515.350769 362.869507,510.358643 
	C362.801788,468.027405 362.868378,425.695953 362.811066,383.364655 
	C362.802948,377.358978 361.052399,375.528198 355.113403,374.257050 
	C354.140625,374.048859 353.085815,374.060242 352.703979,372.864319 
	C355.341705,370.005768 388.523804,369.618988 392.734131,372.405731 
	C392.308868,374.459839 390.555664,374.042633 389.167328,374.345123 
	C384.653259,375.328583 382.291077,378.046722 382.293243,382.771271 
	C382.312927,425.937744 382.333130,469.104248 382.283966,512.270630 
	C382.279633,516.066895 383.753662,517.784973 387.617218,517.670044 
	C400.604370,517.283691 413.652130,517.647644 426.567688,516.498840 
	C440.075104,515.297302 448.963226,507.160736 453.780212,494.557526 
	C455.034241,491.276428 455.057312,491.285248 457.167328,489.576141 
	C458.719604,490.608215 458.248352,492.248108 458.258728,493.646667 
	C458.318146,501.646179 458.106110,509.652405 458.367004,517.643921 
	C458.510345,522.034912 456.908356,523.400513 452.567657,523.380127 
	C422.235077,523.237793 391.901550,523.308167 361.082703,523.311401 
z"/>
<path fill="#000000" opacity="1.000000" stroke="none" 
	d="
M493.749390,501.959808 
	C493.736877,463.314178 493.726654,425.162018 493.713226,387.009827 
	C493.709747,377.066803 493.701324,377.078522 484.035614,373.941315 
	C483.489258,373.763977 483.087372,373.141541 482.695801,371.947479 
	C496.116425,370.092926 509.512177,370.883270 522.706116,370.799652 
	C523.317749,373.315887 522.249695,373.786804 521.099182,374.167145 
	C513.783997,376.585663 512.429321,378.287292 512.320312,385.912140 
	C512.220276,392.907990 512.310913,399.906464 512.310364,406.903778 
	C512.307617,441.557312 512.296753,476.210815 512.303040,510.864349 
	C512.304260,517.362793 512.992920,517.768127 519.535522,517.529297 
	C530.184875,517.140747 540.847168,517.120911 551.500244,516.815002 
	C567.123657,516.366516 577.881226,508.877441 583.699402,494.315857 
	C584.406311,492.546783 584.587463,490.345245 586.724548,489.499664 
	C588.341309,489.933594 588.235657,491.236511 588.238586,492.348267 
	C588.262085,501.177887 588.187317,510.007965 588.248657,518.837158 
	C588.270569,521.990112 586.954712,523.322998 583.766357,523.317932 
	C550.945618,523.266052 518.124817,523.282654 485.304047,523.253479 
	C484.521027,523.252808 483.738312,522.942749 482.094025,522.594543 
	C485.050873,518.650574 490.806091,519.760864 492.591400,515.288208 
	C494.278473,511.061768 493.502228,506.739136 493.749390,501.959808 
z"/>
<path fill="#000000" opacity="1.000000" stroke="none" 
	d="
M625.012573,523.301086 
	C620.185547,523.011902 615.730835,523.951050 611.526672,522.636902 
	C611.599976,520.198181 612.997070,520.092224 614.268250,519.682983 
	C621.241089,517.438171 622.677734,515.578064 622.702209,508.115845 
	C622.765625,488.788818 622.736694,469.461517 622.732300,450.134308 
	C622.727539,429.307556 622.717407,408.480804 622.692322,387.654053 
	C622.680542,377.901276 621.918152,376.901703 612.713440,373.965851 
	C612.166748,373.791504 611.758972,373.181854 611.254700,372.747375 
	C614.607422,369.939514 647.851685,369.804962 651.729858,372.417480 
	C651.695068,373.133026 651.423340,373.703552 650.707886,373.953796 
	C643.288757,376.548492 641.412537,378.809326 641.397034,386.542480 
	C641.316345,426.696075 641.331543,466.849884 641.347290,507.003601 
	C641.349548,512.909485 642.767639,517.956726 649.614685,519.398193 
	C650.711426,519.629089 651.894226,520.161743 651.717468,522.939087 
	C643.128235,523.757446 634.290344,523.060547 625.012573,523.301086 
z"/>
<path fill="#000000" opacity="1.000000" stroke="none" 
	d="
M217.283768,483.143860 
	C217.288956,492.283936 217.480606,500.951050 217.216965,509.604340 
	C217.092209,513.699036 218.230484,515.935608 222.571640,516.117371 
	C225.052856,516.221252 227.553726,516.537231 229.977478,517.068970 
	C231.372360,517.374939 233.015427,518.067200 232.803040,520.000244 
	C232.627228,521.600647 231.243301,522.166870 229.871002,522.173279 
	C218.879456,522.224915 207.887482,522.222839 196.895889,522.176331 
	C195.519180,522.170532 194.151367,521.680115 194.046768,519.986145 
	C193.932037,518.128174 195.303284,517.269348 196.815262,516.980347 
	C199.258377,516.513428 201.748123,516.220825 204.231613,516.051514 
	C207.948120,515.798096 209.614273,513.686340 209.633759,510.205414 
	C209.695282,499.213043 209.683563,488.220032 209.650864,477.227417 
	C209.642761,474.504303 207.880981,472.674286 206.117752,470.855164 
	C196.033508,460.451141 185.962677,450.034088 175.913025,439.596649 
	C174.808685,438.449677 172.955063,437.404297 173.826523,435.474274 
	C174.615814,433.726166 176.569672,433.771362 178.230728,433.769287 
	C201.549881,433.740082 224.869095,433.734497 248.188278,433.738342 
	C249.856400,433.738617 251.760529,433.649200 252.531677,435.488464 
	C253.407288,437.576782 251.740936,438.895905 250.476898,440.174835 
	C241.114578,449.647522 231.559143,458.922668 222.720306,468.914673 
	C219.130493,472.972778 216.321304,476.977020 217.283768,483.143860 
M225.922562,454.423920 
	C229.889832,450.175659 234.515793,446.486053 237.552460,441.062012 
	C221.131821,441.671906 205.043976,440.125153 188.544098,440.738953 
	C189.035675,442.346252 189.037582,442.936646 189.333725,443.235321 
	C196.715240,450.680420 204.119522,458.103027 211.541550,465.507782 
	C213.096497,467.059082 214.414780,466.498230 215.767105,465.035980 
	C218.931030,461.614929 222.194168,458.285583 225.922562,454.423920 
z"/>
<path fill="#000000" opacity="1.000000" stroke="none" 
	d="
M673.999878,577.330566 
	C641.175720,577.330017 608.851379,577.362854 576.527588,577.258179 
	C574.211365,577.250671 570.076965,578.712097 570.237061,574.710999 
	C570.367859,571.441711 574.267883,572.758972 576.489990,572.757568 
	C687.625122,572.686523 798.760315,572.683044 909.895447,572.774963 
	C912.323303,572.776978 916.759705,571.137329 916.618958,575.314514 
	C916.501709,578.794556 912.289490,577.256653 909.933228,577.259216 
	C831.455505,577.344849 752.977722,577.330261 673.999878,577.330566 
z"/>
<path fill="#000000" opacity="1.000000" stroke="none" 
	d="
M341.000061,572.688049 
	C376.824158,572.690674 412.148193,572.693420 447.472260,572.697388 
	C448.805176,572.697571 450.142059,572.648010 451.469971,572.733093 
	C453.088409,572.836670 455.128601,572.610779 454.958740,575.141052 
	C454.823151,577.161621 453.114044,577.210754 451.595825,577.276428 
	C450.264954,577.334045 448.930603,577.324097 447.597809,577.324097 
	C337.460052,577.327515 227.322281,577.329468 117.184509,577.325500 
	C115.519699,577.325439 113.851540,577.301819 112.191154,577.193848 
	C110.922653,577.111267 109.951530,576.568542 109.914467,575.088257 
	C109.877678,573.618469 110.771606,572.948669 112.066681,572.862488 
	C114.058876,572.730042 116.060760,572.701721 118.058548,572.701416 
	C192.205719,572.691895 266.352875,572.690613 341.000061,572.688049 
z"/>
<path fill="#000000" opacity="1.000000" stroke="none" 
	d="
M500.895050,568.947510 
	C507.401001,564.340698 509.912140,557.760559 512.146851,550.148438 
	C515.563538,563.759949 523.224670,572.671570 537.997986,575.229309 
	C522.447876,577.498840 514.207886,586.164673 512.477295,601.944275 
	C509.561737,586.209717 501.307556,577.185059 485.409393,575.176819 
	C491.093475,573.792725 496.294189,572.519287 500.895050,568.947510 
z"/>
<path fill="#000000" opacity="1.000000" stroke="none" 
	d="
M859.398682,625.903076 
	C863.559448,628.450623 863.686951,633.202637 866.538330,636.699890 
	C869.124146,634.689209 869.356384,631.474060 870.828979,629.032104 
	C872.270508,626.641663 873.993103,625.149353 876.900452,625.861328 
	C879.920593,626.600952 879.181580,629.172546 879.229614,631.196655 
	C879.344177,636.025635 879.291687,640.858887 879.289246,645.690369 
	C879.288269,647.598877 879.176025,649.682983 876.635010,649.647156 
	C874.057739,649.610901 874.116028,647.392395 874.083618,645.573669 
	C874.015869,641.774170 874.063110,637.972534 874.063110,633.656250 
	C870.526672,637.259216 870.681335,642.514709 866.677917,645.248779 
	C862.531921,642.458008 862.481262,637.366577 859.265625,633.287903 
	C859.265625,638.204102 859.277466,642.318542 859.259521,646.432800 
	C859.252686,647.995056 859.123535,649.588074 857.018311,649.616089 
	C854.913818,649.643982 854.708618,648.056030 854.701233,646.495056 
	C854.673645,640.664185 854.733032,634.832764 854.676636,629.002319 
	C854.646179,625.846069 856.550354,625.522339 859.398682,625.903076 
z"/>
<path fill="#000000" opacity="1.000000" stroke="none" 
	d="
M441.785217,631.248779 
	C443.927795,633.804871 445.833466,636.099670 448.680603,639.528137 
	C448.680603,636.309082 448.680603,634.304749 448.680603,632.300476 
	C448.680603,630.325439 448.680603,628.350403 448.680603,626.364441 
	C452.537567,624.986023 454.454498,625.657043 454.355255,629.811218 
	C454.227997,635.140137 454.359100,640.474792 454.298248,645.806030 
	C454.282166,647.212402 454.723572,649.045959 452.673096,649.495300 
	C451.030548,649.855347 449.884033,648.865112 448.850403,647.648254 
	C445.338440,643.513916 442.533051,638.730835 437.326508,634.974121 
	C437.326508,639.032227 437.366486,642.464111 437.308990,645.894348 
	C437.282013,647.504395 437.572723,649.539917 435.019501,649.453918 
	C432.996002,649.385803 432.774780,647.751587 432.768341,646.194458 
	C432.740997,639.556274 432.756714,632.917847 432.756714,626.412415 
	C438.265015,623.760498 438.983246,629.018921 441.785217,631.248779 
z"/>
<path fill="#000000" opacity="1.000000" stroke="none" 
	d="
M275.806458,625.558472 
	C285.669678,626.714050 287.998322,631.442627 282.704712,639.171570 
	C281.641937,640.723206 281.712036,641.718994 282.663086,643.125549 
	C283.843872,644.871948 285.787109,646.158203 286.099365,648.694153 
	C284.090820,650.887573 282.022308,650.206604 280.153198,648.553894 
	C279.056152,647.583862 278.337372,646.197815 277.373199,645.062866 
	C275.940979,643.376892 275.080811,640.582092 272.080688,641.465088 
	C269.367584,642.263550 270.612396,644.781860 270.354309,646.588196 
	C270.136810,648.110229 270.136963,649.811829 268.131836,649.866394 
	C265.752014,649.931152 265.720978,647.984680 265.704376,646.321289 
	C265.653015,641.177368 265.927338,636.017334 265.604919,630.893127 
	C265.343018,626.730713 266.880310,625.085754 270.951019,625.491089 
	C272.428955,625.638184 273.932678,625.526978 275.806458,625.558472 
M275.326233,636.972778 
	C277.859039,636.844727 280.129242,636.188965 279.699982,633.035828 
	C279.279816,629.949280 276.751434,629.449524 274.154602,629.320435 
	C271.909851,629.208923 270.400116,629.743591 270.297485,632.501343 
	C270.181641,635.613953 271.272034,637.198303 275.326233,636.972778 
z"/>
<path fill="#000000" opacity="1.000000" stroke="none" 
	d="
M142.697052,646.723206 
	C142.671387,640.760986 142.756577,635.269775 142.634659,629.783081 
	C142.568314,626.796936 143.771683,625.495789 146.755707,625.655090 
	C148.745789,625.761414 150.747116,625.635742 152.742676,625.664490 
	C159.782654,625.765808 161.857330,628.359314 160.080139,635.258789 
	C159.617432,637.055176 160.457047,638.036743 161.172455,639.323425 
	C163.834412,644.110779 161.935715,648.147522 156.538925,649.370667 
	C153.260757,650.113586 149.937286,650.124634 146.609955,650.043396 
	C144.689438,649.996582 142.875473,649.702576 142.697052,646.723206 
M147.348450,640.349854 
	C147.469833,642.204590 146.355103,644.736084 148.995544,645.424927 
	C151.336243,646.035461 153.984238,646.226440 156.171234,644.652710 
	C158.112228,643.255981 158.264404,641.321472 155.949020,640.491028 
	C153.314713,639.546082 150.518982,637.917969 147.348450,640.349854 
M151.232224,635.632874 
	C151.885040,635.529663 152.568024,635.515503 153.184967,635.306396 
	C154.992004,634.694092 156.880951,633.774109 156.350861,631.543396 
	C155.752182,629.024170 153.355347,629.356445 151.388428,629.354004 
	C149.596512,629.351807 147.539658,629.018433 147.350983,631.769653 
	C147.195587,634.035828 147.622116,635.808228 151.232224,635.632874 
z"/>
<path fill="#000000" opacity="1.000000" stroke="none" 
	d="
M590.792114,636.183350 
	C593.223145,627.608643 596.535278,624.784790 603.851807,624.670166 
	C611.085938,624.556824 616.026550,628.801086 617.137939,636.083679 
	C618.042114,642.008606 613.833191,647.848328 607.331055,649.690186 
	C601.288452,651.401917 594.773132,648.272888 592.193176,642.338196 
	C591.403320,640.521301 590.663940,638.651062 590.792114,636.183350 
M596.873169,640.447083 
	C598.485535,644.655151 601.518372,646.422607 605.903931,645.360474 
	C609.880310,644.397522 612.454712,641.828308 612.335266,637.610229 
	C612.213074,633.293396 610.262878,629.932434 605.696350,628.768433 
	C599.480835,627.184082 595.936340,631.458984 596.873169,640.447083 
z"/>
<path fill="#000000" opacity="1.000000" stroke="none" 
	d="
M628.830383,643.757141 
	C628.824036,638.790222 628.800049,634.296021 628.823303,629.802124 
	C628.831848,628.148376 628.652710,626.085083 630.903320,625.882202 
	C635.354980,625.481201 639.908630,624.908508 644.241089,626.407349 
	C648.227051,627.786377 650.415283,633.061218 647.451965,636.201660 
	C643.268616,640.635010 645.808716,643.438599 648.136414,646.830627 
	C648.583984,647.482727 648.880249,648.238770 649.450989,649.342834 
	C646.468384,650.626465 644.493713,649.785034 642.853455,647.573364 
	C641.466919,645.703796 640.110413,643.811340 638.691650,641.966675 
	C637.957214,641.011780 637.015381,640.234680 635.708313,640.610229 
	C634.272949,641.022644 634.359253,642.322937 634.283569,643.479431 
	C634.261902,643.811279 634.296082,644.148560 634.254883,644.477051 
	C633.989258,646.594604 635.171204,649.891724 631.541077,649.738770 
	C628.250305,649.600037 629.028503,646.446838 628.830383,643.757141 
M643.535645,633.345520 
	C642.956909,628.772339 639.501526,629.157471 636.424866,629.510681 
	C633.471802,629.849670 634.482239,632.432129 634.410278,634.250549 
	C634.358704,635.553650 635.051025,636.455750 636.443909,636.568237 
	C639.124084,636.784668 641.785828,636.899841 643.535645,633.345520 
z"/>
<path fill="#000000" opacity="1.000000" stroke="none" 
	d="
M551.673096,647.025024 
	C550.312378,651.131287 548.310120,649.821960 546.637329,647.838074 
	C543.010315,643.536316 539.569580,639.077515 535.728516,634.277954 
	C534.823486,638.419312 536.011047,642.144653 535.734192,645.838501 
	C535.626892,647.270203 536.113098,649.144043 533.929321,649.300049 
	C531.783508,649.453308 531.705750,647.692200 531.697144,646.171265 
	C531.664978,640.515564 531.660522,634.859375 531.707947,629.203918 
	C531.718689,627.921753 531.566467,626.397095 533.318909,625.970215 
	C535.002197,625.560181 536.144470,626.385681 537.117798,627.702515 
	C539.974609,631.567444 542.885681,635.392334 546.585388,640.309204 
	C546.585388,634.794373 546.585388,630.494751 546.585388,626.377869 
	C550.708740,624.704529 552.054016,626.150818 551.972229,629.702026 
	C551.842041,635.354248 551.778809,641.008057 551.673096,647.025024 
z"/>
<path fill="#000000" opacity="1.000000" stroke="none" 
	d="
M347.416870,643.571777 
	C348.036530,638.153442 342.131104,640.316772 340.498047,636.576782 
	C343.919617,634.976379 347.752472,634.960876 350.716125,636.264221 
	C353.946533,637.684937 351.995972,641.616760 352.277222,644.432800 
	C352.655914,648.224182 349.384460,648.362488 346.975555,649.172485 
	C341.233734,651.103027 334.645660,648.992615 331.536621,644.329407 
	C328.656708,640.009827 328.982483,632.778809 332.232086,628.891602 
	C335.733704,624.702942 344.364410,623.266235 349.280243,625.917969 
	C351.677917,627.211304 351.904572,629.085083 351.228546,631.768066 
	C348.422974,631.569519 346.311951,629.255920 343.446442,629.176331 
	C339.605347,629.069763 336.568512,629.790527 335.108490,633.856689 
	C333.727905,637.701599 333.951080,641.169006 337.412018,643.684753 
	C340.536316,645.955750 343.935516,647.025574 347.416870,643.571777 
z"/>
<path fill="#000000" opacity="1.000000" stroke="none" 
	d="
M842.444153,626.920410 
	C841.889587,630.481750 839.216553,629.332397 837.301880,629.556885 
	C835.508789,629.767090 833.656006,629.404236 831.830383,629.416748 
	C829.519226,629.432556 829.214172,630.991821 829.353210,632.852722 
	C829.491943,634.710999 830.426331,635.451111 832.303101,635.323425 
	C835.106323,635.132874 838.169128,633.883423 840.704285,637.039795 
	C838.643188,639.672363 835.891296,639.097717 833.384155,639.087341 
	C831.180847,639.078186 829.433533,639.259033 829.329468,642.131653 
	C829.219604,645.163818 830.866638,645.772827 833.402100,645.692810 
	C835.725037,645.619568 838.055542,645.681030 840.378967,645.774780 
	C841.567749,645.822693 842.800781,646.107300 842.947449,647.590637 
	C843.087158,649.003906 842.147461,649.888245 840.887024,649.904053 
	C835.909729,649.966675 830.922424,650.024475 825.955872,649.761902 
	C823.860107,649.651123 823.694397,647.636230 823.691223,645.911926 
	C823.680969,640.427063 823.677979,634.942200 823.702576,629.457458 
	C823.710144,627.765808 823.724243,625.829102 826.068726,625.849670 
	C831.483887,625.897095 836.961487,624.722534 842.444153,626.920410 
z"/>
<path fill="#000000" opacity="1.000000" stroke="none" 
	d="
M254.622726,628.595764 
	C250.117462,630.914917 245.580490,629.370850 241.076813,629.830383 
	C239.535156,633.514404 240.709274,635.112976 244.647705,634.990417 
	C247.212051,634.910583 249.948837,634.441895 252.179123,636.831543 
	C250.574707,640.282898 247.558426,638.854492 245.215546,639.091614 
	C242.881393,639.327820 240.326340,638.812256 240.376801,642.422852 
	C240.426758,645.998413 243.002441,645.623657 245.325348,645.673950 
	C247.816711,645.727905 250.310730,645.721069 252.798691,645.841736 
	C253.829224,645.891663 254.804077,646.352844 254.952576,647.536194 
	C255.139252,649.023621 254.073502,649.768738 252.870682,649.797546 
	C247.892792,649.917175 242.904434,650.029907 237.933670,649.819824 
	C235.790909,649.729248 235.709015,647.666748 235.701248,645.967224 
	C235.676178,640.481262 235.667191,634.994934 235.694824,629.509033 
	C235.703278,627.830505 235.705063,625.909851 238.043671,625.858337 
	C243.025314,625.748413 248.011597,625.761414 252.994156,625.839844 
	C254.349594,625.861145 255.042130,626.796204 254.622726,628.595764 
z"/>
<path fill="#000000" opacity="1.000000" stroke="none" 
	d="
M301.257294,635.343750 
	C302.536987,632.400208 303.461365,629.697693 304.801575,627.220093 
	C306.332397,624.390198 310.427307,623.940857 311.770996,626.586670 
	C315.358551,633.650940 318.851746,640.790955 321.418243,648.475769 
	C319.310425,649.952026 317.262878,649.897766 316.542755,647.970337 
	C314.301666,641.971680 309.525574,641.701538 304.129578,642.020996 
	C301.464325,643.806580 302.881256,648.555420 299.207428,649.857666 
	C298.134521,650.238098 296.892090,649.817017 295.914337,648.192505 
	C297.559631,644.212952 299.322632,639.948547 301.257294,635.343750 
M306.105469,637.089294 
	C307.470795,638.052917 308.823151,638.037415 310.389099,636.942749 
	C310.218445,634.784912 309.850220,632.642517 308.629211,630.238525 
	C307.346130,632.502808 306.200562,634.298950 306.105469,637.089294 
z"/>
<path fill="#000000" opacity="1.000000" stroke="none" 
	d="
M380.504578,649.888733 
	C364.644714,650.360474 364.607513,650.360352 364.665680,635.125977 
	C364.706787,624.354370 363.678802,625.902039 373.894531,625.665344 
	C376.052124,625.615417 378.214661,625.652771 380.371399,625.738647 
	C381.724213,625.792419 383.202026,625.942505 383.005127,627.872009 
	C382.852295,629.369690 381.561737,629.633057 380.406128,629.644104 
	C378.084564,629.666260 375.761841,629.480713 373.438538,629.432190 
	C371.816376,629.398254 370.445953,629.745178 370.327240,631.783569 
	C370.202209,633.931274 371.296967,634.753113 373.313965,634.820557 
	C375.290924,634.886780 377.321503,634.628845 379.200562,635.515991 
	C379.642151,635.724487 380.040466,636.024536 380.540955,636.333252 
	C378.095184,640.903748 373.910919,637.802917 371.022156,639.279297 
	C369.479065,645.048035 369.875000,645.604248 375.633575,645.666565 
	C377.294708,645.684509 378.957581,645.646667 380.616669,645.711121 
	C381.918915,645.761719 383.553650,645.615295 383.856689,647.307678 
	C384.243134,649.466187 382.366058,649.492554 380.504578,649.888733 
z"/>
<path fill="#000000" opacity="1.000000" stroke="none" 
	d="
M179.968964,635.141602 
	C183.423492,636.427368 187.179108,633.550415 190.367538,636.941467 
	C188.097000,639.798767 185.197372,639.090210 182.548813,638.785950 
	C179.916428,638.483398 178.416245,639.018372 178.305786,642.039124 
	C178.196487,645.028442 179.686172,645.779907 182.285629,645.691284 
	C184.778625,645.606384 187.279999,645.632751 189.772873,645.731689 
	C191.200516,645.788330 193.079086,645.588074 192.996902,647.823425 
	C192.921432,649.876709 191.149734,649.966248 189.675888,649.997803 
	C185.517807,650.086731 181.356766,650.084961 177.197510,650.047913 
	C175.091248,650.029175 173.706436,649.113037 173.709351,646.763367 
	C173.717758,639.981812 173.712311,633.200195 173.712311,625.450378 
	C179.700302,625.450378 185.297485,625.438354 190.894547,625.458801 
	C192.284332,625.463928 193.082184,626.208862 193.029099,627.628113 
	C192.972336,629.145386 191.797653,629.578003 190.603760,629.592651 
	C187.947098,629.625366 185.288452,629.436035 182.630341,629.427917 
	C178.242813,629.414490 177.259964,631.308289 179.968964,635.141602 
z"/>
<path fill="#000000" opacity="1.000000" stroke="none" 
	d="
M779.046875,629.699951 
	C777.707520,629.451355 776.721741,629.262146 775.732483,629.241211 
	C774.342224,629.211792 772.988098,629.491638 772.596741,631.085510 
	C772.129272,632.989014 773.477356,633.928040 774.935730,634.333374 
	C777.818298,635.134521 780.723145,635.769775 783.142395,637.698669 
	C787.317200,641.027222 787.231262,645.311279 782.893250,648.364746 
	C779.551392,650.717041 771.455566,650.549561 768.141663,648.145569 
	C767.045044,647.350098 766.559143,646.458374 767.066711,645.199707 
	C767.652161,643.748169 768.782043,644.001709 769.984558,644.319458 
	C771.898315,644.825256 773.821777,645.435547 775.776184,645.610901 
	C778.129944,645.822021 780.473694,645.537781 781.435608,642.574219 
	C779.517273,639.409790 775.813599,640.276123 773.079468,639.029114 
	C769.331665,637.319946 766.049377,635.555725 766.827820,630.783325 
	C767.648621,625.751465 771.700562,624.910217 775.834351,624.743408 
	C781.832397,624.501404 784.242798,626.523621 783.612976,630.918030 
	C782.030334,631.264221 780.798340,630.211487 779.046875,629.699951 
z"/>
<path fill="#000000" opacity="1.000000" stroke="none" 
	d="
M504.387543,641.508911 
	C504.054352,644.722351 505.423035,645.801819 508.162811,645.681946 
	C510.489807,645.580078 512.830811,645.582092 515.155396,645.715942 
	C516.673035,645.803284 518.962219,645.242554 518.886658,647.773376 
	C518.819458,650.024963 516.650757,649.987366 515.067322,650.024780 
	C511.240875,650.115295 507.409180,650.002014 503.579926,649.948975 
	C500.965485,649.912659 499.633911,648.704895 499.672882,645.945496 
	C499.750427,640.450256 499.730713,634.952820 499.675995,629.457031 
	C499.652039,627.051880 500.491882,625.680237 503.114746,625.708069 
	C507.443970,625.754089 511.774445,625.674072 516.104004,625.702698 
	C517.467041,625.711670 518.990356,625.877747 518.946716,627.714905 
	C518.901367,629.622009 517.279602,629.492981 515.975830,629.501282 
	C513.145142,629.519470 510.313934,629.447144 507.482819,629.422302 
	C505.831268,629.407837 504.504150,629.784058 504.410065,631.822266 
	C504.308960,634.011414 505.539490,634.588013 507.472107,634.855896 
	C510.190491,635.232666 513.498413,633.623535 515.696899,637.012390 
	C513.643738,639.393005 510.961823,638.410217 508.660767,638.705505 
	C506.824860,638.941040 504.880341,638.649902 504.387543,641.508911 
z"/>
<path fill="#000000" opacity="1.000000" stroke="none" 
	d="
M711.725098,638.473389 
	C707.598938,636.873962 705.773865,634.266846 706.738342,630.164429 
	C707.720520,625.986816 711.044739,625.059021 714.682617,624.701294 
	C717.398376,624.434265 719.980835,625.114136 722.443359,626.155396 
	C723.917236,626.778625 725.020264,627.897644 724.270813,629.682495 
	C723.448730,631.640320 722.005127,631.141418 720.542053,630.421082 
	C718.602600,629.466125 716.640564,628.472595 714.371887,629.001526 
	C713.059448,629.307617 711.665100,629.722412 711.576721,631.380981 
	C711.503357,632.758362 712.553955,633.332153 713.712036,633.780151 
	C716.187012,634.737915 718.691895,635.646851 721.079834,636.793701 
	C723.648560,638.027527 725.304993,640.124634 725.185486,643.085938 
	C725.074768,645.828308 723.272705,647.584778 721.011047,648.885010 
	C716.815735,651.296997 712.663940,650.253235 708.551147,648.642639 
	C707.039185,648.050537 705.857849,647.026855 706.562134,645.228210 
	C707.346252,643.225525 708.897400,643.839294 710.312866,644.480591 
	C713.836914,646.076904 717.228210,646.647095 720.432495,643.351135 
	C718.734131,639.616943 714.739990,640.256165 711.725098,638.473389 
z"/>
<path fill="#000000" opacity="1.000000" stroke="none" 
	d="
M473.124756,644.796143 
	C470.243439,638.640503 467.235657,632.939636 465.564880,626.531494 
	C468.895630,624.897949 470.665253,625.942383 471.867798,629.005737 
	C473.493591,633.147461 475.358368,637.195374 477.298340,641.695862 
	C479.453033,637.063721 481.574768,632.978516 483.259430,628.720520 
	C484.468475,625.664551 486.106750,625.024780 489.426178,626.726135 
	C486.301666,633.964661 483.479065,641.190125 480.060211,648.121460 
	C478.462463,651.360718 475.466827,650.009705 473.124756,644.796143 
z"/>
<path fill="#000000" opacity="1.000000" stroke="none" 
	d="
M207.185913,627.815857 
	C208.972168,632.446838 210.420776,636.811890 212.939041,640.794128 
	C217.086609,636.056152 216.030960,627.904114 223.881699,625.258362 
	C224.712296,629.426270 222.612671,631.824280 221.564392,634.487915 
	C219.926132,638.650635 218.306900,642.823975 216.527374,646.926880 
	C215.205292,649.975037 211.759872,650.634766 210.545105,647.941833 
	C207.376251,640.917053 203.081284,634.309631 201.709457,626.488403 
	C203.946671,625.342468 205.707840,625.332520 207.185913,627.815857 
z"/>
<path fill="#000000" opacity="1.000000" stroke="none" 
	d="
M755.483154,629.425903 
	C751.668396,635.046082 747.005798,639.912292 748.141418,647.208374 
	C748.328735,648.412170 747.673035,649.513855 746.230591,649.683594 
	C744.953491,649.833984 743.404419,649.362976 743.534546,648.125305 
	C744.451965,639.401123 737.397339,634.099609 734.701599,626.955078 
	C734.652100,626.823792 734.760010,626.633179 734.877075,626.079285 
	C742.225586,624.285522 741.539307,632.484558 745.691101,634.943604 
	C748.187317,632.977966 748.825989,629.632812 750.886230,627.311768 
	C752.273804,625.748657 754.010864,625.158752 755.793518,626.100098 
	C757.249512,626.869019 756.056335,628.107300 755.483154,629.425903 
z"/>
<path fill="#000000" opacity="1.000000" stroke="none" 
	d="
M667.089600,633.394592 
	C671.005737,634.543396 670.917725,630.967896 672.241882,629.275024 
	C673.931274,627.115234 675.184509,624.693909 678.554504,626.272156 
	C679.389832,628.257263 677.954163,629.452087 677.030945,630.707886 
	C673.645813,635.312256 670.462158,639.927917 671.262573,646.125305 
	C671.489441,647.881592 670.933228,649.507629 668.744263,649.723755 
	C667.210815,649.875122 665.758850,649.159058 665.962952,647.630615 
	C667.061401,639.405334 661.339722,634.130920 657.754272,627.923828 
	C657.525818,627.528442 657.524231,627.001892 657.360657,626.290833 
	C660.295288,625.234863 662.433899,625.473633 663.823792,628.657410 
	C664.538391,630.294373 665.830566,631.679199 667.089600,633.394592 
z"/>
<path fill="#000000" opacity="1.000000" stroke="none" 
	d="
M566.923828,625.652222 
	C571.023560,625.617981 574.672791,625.502625 578.316711,625.595642 
	C579.753967,625.632263 582.123352,624.683167 582.046753,627.426941 
	C581.978088,629.886353 579.721863,629.185486 578.203979,629.448669 
	C577.078186,629.643921 575.956360,629.861816 574.291199,630.169678 
	C574.291199,635.353882 574.323853,640.455444 574.273621,645.556213 
	C574.255798,647.357239 574.398682,649.678589 571.851685,649.679749 
	C569.090271,649.681091 569.738098,647.182922 569.692932,645.510315 
	C569.585266,641.527832 569.547424,637.537048 569.682678,633.556458 
	C569.785156,630.538940 568.697998,629.192871 565.577087,629.729065 
	C564.614197,629.894409 563.581116,629.830627 562.605164,629.693909 
	C561.456299,629.532959 560.201843,629.271484 560.155518,627.740356 
	C560.108521,626.187378 561.269287,625.854675 562.489685,625.768433 
	C563.812927,625.675110 565.143677,625.687988 566.923828,625.652222 
z"/>
<path fill="#000000" opacity="1.000000" stroke="none" 
	d="
M801.651978,641.927124 
	C801.652954,639.790710 801.533203,638.121399 801.677856,636.475403 
	C802.077576,631.928711 801.467957,628.422119 795.507141,629.323303 
	C794.217651,629.518250 792.551025,629.255554 792.541626,627.487000 
	C792.531738,625.633057 794.234985,625.736694 795.521851,625.721680 
	C800.828552,625.659607 806.136475,625.618591 811.442932,625.672852 
	C812.843262,625.687134 814.816956,625.434265 814.861877,627.573730 
	C814.909912,629.865479 812.865540,629.516785 811.529297,629.350830 
	C807.274536,628.822632 805.950317,630.684265 806.265747,634.737976 
	C806.547852,638.364319 806.331238,642.031433 806.289246,645.680054 
	C806.268005,647.529541 806.278320,649.726990 803.741455,649.691467 
	C801.359131,649.658081 801.795166,647.460083 801.680542,645.886902 
	C801.596436,644.731750 801.656250,643.565979 801.651978,641.927124 
z"/>
<path fill="#000000" opacity="1.000000" stroke="none" 
	d="
M415.454773,649.073364 
	C414.118622,642.033081 414.823212,635.255981 414.742035,628.495361 
	C414.724915,627.067871 415.170837,625.872681 416.989746,625.913574 
	C418.749207,625.953125 419.240875,627.086487 419.244965,628.538513 
	C419.262695,634.822693 419.308319,641.108459 419.184357,647.390503 
	C419.141815,649.546692 417.810944,650.258789 415.454773,649.073364 
z"/>
</svg>